HIERARCHY
ROOT Hips
{
    OFFSET 0.000000 0.000000 0.000000
    CHANNELS 6 Xposition Yposition Zposition Zrotation Xrotation Yrotation
    JOINT Spine
    {
        OFFSET -0.000000 0.084000 0.000000
        CHANNELS 3 Zrotation Xrotation Yrotation
        JOINT Spine1
        {
            OFFSET -0.000000 0.216247 0.000000
            CHANNELS 3 Zrotation Xrotation Yrotation
            JOINT Neck
            {
                OFFSET -0.000000 0.215359 0.019578
                CHANNELS 3 Zrotation Xrotation Yrotation
                JOINT Head
                {
                    OFFSET -0.000000 0.143414 -0.020488
                    CHANNELS 3 Zrotation Xrotation Yrotation
                    End Site
                    {
                        OFFSET -0.000000 0.204877 0.000000
                    }
                }
            }
            JOINT LeftShoulder
            {
                OFFSET 0.040109 0.191272 -0.003631
                CHANNELS 3 Zrotation Xrotation Yrotation
                JOINT LeftArm
                {
                    OFFSET 0.138349 0.000000 0.000000
                    CHANNELS 3 Zrotation Xrotation Yrotation
                    JOINT LeftForeArm
                    {
                        OFFSET 0.335349 0.000000 0.000000
                        CHANNELS 3 Zrotation Xrotation Yrotation
                        JOINT LeftHand
                        {
                            OFFSET 0.276368 0.000000 0.000000
                            CHANNELS 3 Zrotation Xrotation Yrotation
                            End Site
                            {
                                OFFSET 0.153658 0.000000 0.000000
                            }
                        }
                    }
                }
            }
            JOINT RightShoulder
            {
                OFFSET -0.041533 0.191272 -0.003631
                CHANNELS 3 Zrotation Xrotation Yrotation
                JOINT RightArm
                {
                    OFFSET -0.138349 0.000000 0.000000
                    CHANNELS 3 Zrotation Xrotation Yrotation
                    JOINT RightForeArm
                    {
                        OFFSET -0.335349 0.000000 0.000000
                        CHANNELS 3 Zrotation Xrotation Yrotation
                        JOINT RightHand
                        {
                            OFFSET -0.276368 0.000000 0.000000
                            CHANNELS 3 Zrotation Xrotation Yrotation
                            End Site
                            {
                                OFFSET -0.153658 0.000000 0.000000
                            }
                        }
                    }
                }
            }
        }
    }
    JOINT LeftUpLeg
    {
        OFFSET 0.102438 0.000000 0.000000
        CHANNELS 3 Zrotation Xrotation Yrotation
        JOINT LeftLeg
        {
            OFFSET -0.000000 -0.442852 0.000000
            CHANNELS 3 Zrotation Xrotation Yrotation
            JOINT LeftFoot
            {
                OFFSET -0.000000 -0.461647 0.000000
                CHANNELS 3 Zrotation Xrotation Yrotation
                JOINT LeftToeBase
                {
                    OFFSET -0.000000 -0.066585 0.153658
                    CHANNELS 3 Zrotation Xrotation Yrotation
                    End Site
                    {
                        OFFSET -0.000000 0.000000 0.040975
                    }
                }
            }
        }
    }
    JOINT RightUpLeg
    {
        OFFSET -0.102438 0.000000 0.000000
        CHANNELS 3 Zrotation Xrotation Yrotation
        JOINT RightLeg
        {
            OFFSET -0.000000 -0.442852 0.000000
            CHANNELS 3 Zrotation Xrotation Yrotation
            JOINT RightFoot
            {
                OFFSET -0.000000 -0.461647 0.000000
                CHANNELS 3 Zrotation Xrotation Yrotation
                JOINT RightToeBase
                {
                    OFFSET -0.000000 -0.066585 0.153658
                    CHANNELS 3 Zrotation Xrotation Yrotation
                    End Site
                    {
                        OFFSET -0.000000 0.000000 0.040975
                    }
                }
            }
        }
    }
}
MOTION
Frames:    8
Frame Time:    0.010000
-0.521784    1.118933    -0.197391    -4.334580    17.397736    -19.954758    7.087111    -8.679664    -0.632733    -8.012939    21.209410    1.127390    1.819910    12.805540    7.537708    -5.645565    -7.998592    6.599142    5.001928    8.720611    5.062715    -12.892118    45.958782    -30.259794    3.793227    -21.758291    -56.798588    10.683559    -20.291126    -5.142107    -7.928445    4.440007    12.768870    16.220974    49.723385    10.927019    -17.913836    -28.240932    69.228180    -4.377202    -16.899218    5.356519    14.936522    -25.981392    3.034774    -7.001858    19.555241    4.447364    -17.116909    25.401289    10.112480    0.000000    0.000000    0.000000    -58.524063    -56.116642    -47.254433    55.690121    58.883587    -61.478756    1.065521    4.630484    -17.073277    0.000000    0.000000    0.000000    
-0.520696    1.120042    -0.198005    -4.085650    17.322935    -19.739197    6.972642    -8.665960    -0.676013    -8.325785    21.277298    1.179740    1.809170    12.640897    7.407674    -5.518492    -8.105005    6.482955    4.932197    8.836013    4.933477    -13.016012    45.765503    -30.621424    3.442729    -21.640581    -56.291492    10.876019    -20.372843    -5.096561    -7.866320    4.498835    12.613741    16.669935    49.909302    10.821062    -18.464046    -28.447765    69.375618    -4.420781    -16.703991    5.075861    14.748963    -26.266970    2.636850    -7.219292    20.198727    4.608255    -16.499569    23.806515    10.017206    0.000000    0.000000    0.000000    -58.281300    -56.091461    -46.954987    55.669586    59.146534    -61.498192    1.116734    4.569469    -17.117130    0.000000    0.000000    0.000000    
-0.519689    1.120136    -0.198638    -3.853441    17.199547    -19.549911    6.821648    -8.589746    -0.693058    -8.603263    21.342434    1.236375    1.815033    12.443457    7.268805    -5.386801    -8.181873    6.358974    4.860644    8.929117    4.788759    -13.134776    45.586853    -31.066578    3.055163    -21.546335    -55.805969    11.131305    -20.491953    -5.022886    -7.763638    4.540078    12.437010    17.120741    49.977097    10.794147    -18.877972    -28.582359    69.590134    -4.461594    -16.504894    4.790281    14.569575    -26.532207    2.308942    -7.451976    20.992022    4.779942    -15.794279    22.154285    9.868574    0.000000    0.000000    0.000000    -57.893448    -56.083424    -46.552082    55.650951    59.467175    -61.514481    1.175787    4.496479    -17.127897    0.000000    0.000000    0.000000    
-0.518772    1.119242    -0.199263    -3.641119    17.036861    -19.393740    6.641321    -8.464541    -0.679390    -8.842534    21.404724    1.297672    1.840696    12.233739    7.125650    -5.268589    -8.241187    6.227657    4.782155    8.993250    4.634581    -13.237819    45.453587    -31.602055    2.672597    -21.498785    -55.320946    11.446444    -20.651190    -4.923479    -7.626352    4.580058    12.235385    17.553696    49.911354    10.870725    -19.133993    -28.640858    69.870148    -4.479468    -16.313637    4.528271    14.404270    -26.767912    2.072185    -7.674202    21.896130    4.878549    -15.001828    20.539125    9.677221    0.000000    0.000000    0.000000    -57.352875    -56.092972    -46.047005    55.630775    59.828232    -61.533695    1.235921    4.423207    -17.103544    0.000000    0.000000    0.000000    
-0.517949    1.117393    -0.199872    -3.447982    16.844595    -19.275721    6.435903    -8.302670    -0.634496    -9.043164    21.460001    1.362848    1.872288    12.022297    6.983298    -5.153766    -8.285533    6.096904    4.692363    9.030813    4.472624    -13.325871    45.368702    -32.214050    2.328004    -21.488079    -54.830597    11.775985    -20.824722    -4.820146    -7.463259    4.632655    12.012589    17.959768    49.719284    11.066698    -19.252655    -28.634190    70.195145    -4.478353    -16.134144    4.285046    14.254906    -26.970879    1.925612    -7.891445    22.930197    4.855045    -14.094610    18.891363    9.495248    0.000000    0.000000    0.000000    -56.659203    -56.118767    -45.449150    55.595917    60.216515    -61.551682    1.304618    4.359653    -17.034904    0.000000    0.000000    0.000000    
-0.517212    1.114617    -0.200466    -3.269983    16.634861    -19.199955    6.207503    -8.119733    -0.559465    -9.205464    21.503494    1.430776    1.890011    11.816497    6.845212    -5.021073    -8.312518    5.975821    4.587117    9.048848    4.305672    -13.412089    45.331532    -32.878071    2.043985    -21.508549    -54.349499    12.134638    -20.996469    -4.710464    -7.281671    4.710247    11.779958    18.338381    49.422974    11.384301    -19.290482    -28.581837    70.529434    -4.461380    -15.957451    4.040576    14.114478    -27.135538    1.848719    -8.072109    23.975346    4.704278    -13.155290    17.404808    9.331316    0.000000    0.000000    0.000000    -55.818867    -56.160801    -44.773220    55.524899    60.620579    -61.560257    1.390995    4.318889    -16.907511    0.000000    0.000000    0.000000    
-0.516552    1.110931    -0.201032    -3.105359    16.421043    -19.159019    5.962219    -7.936115    -0.462602    -9.332016    21.535522    1.498461    1.888180    11.623714    6.714092    -4.868310    -8.323545    5.867995    4.460806    9.050353    4.146725    -13.495767    45.319405    -33.586159    1.800742    -21.545351    -53.902256    12.529851    -21.159464    -4.573104    -7.088636    4.820898    11.547122    18.691078    49.050827    11.822236    -19.302267    -28.510326    70.841461    -4.429570    -15.782346    3.784723    13.971884    -27.274086    1.804166    -8.181896    24.964201    4.447908    -12.302403    16.179909    9.177665    0.000000    0.000000    0.000000    -54.847450    -56.208908    -44.040157    55.404305    61.028957    -61.533325    1.507534    4.306361    -16.726320    0.000000    0.000000    0.000000    
-0.515957    1.106349    -0.201521    -2.955255    16.212091    -19.139236    5.712400    -7.772963    -0.353821    -9.431816    21.563292    1.563949    1.866305    11.448362    6.591611    -4.698197    -8.321462    5.774621    4.311391    9.036616    4.007656    -13.566062    45.318588    -34.343681    1.601781    -21.580263    -53.492374    12.897926    -21.294092    -4.428423    -6.891295    4.967374    11.320592    19.027708    48.624779    12.371449    -19.322073    -28.441172    71.117386    -4.403057    -15.612411    3.515271    13.858541    -27.411261    1.753579    -8.254354    25.923477    4.130195    -11.608693    15.214910    8.941226    0.000000    0.000000    0.000000    -53.760197    -56.243420    -43.266243    55.226723    61.432022    -61.437672    1.674705    4.315582    -16.497051    0.000000    0.000000    0.000000    
